<?xml version="1.0" encoding="iso-8859-1"?>
<!-- Generator: Adobe Illustrator 19.0.0, SVG Export Plug-In . SVG Version: 6.00 Build 0)  -->
<svg version="1.1" id="Capa_1" xmlns="http://www.w3.org/2000/svg" xmlns:xlink="http://www.w3.org/1999/xlink" x="0px" y="0px"
	 viewBox="0 0 512 512" style="enable-background:new 0 0 512 512;" xml:space="preserve">
<path style="fill:#F2F2F2;" d="M469.333,85.856H42.667C19.104,85.856,0,104.96,0,128.523v254.955
	c0,23.563,19.104,42.667,42.667,42.667h426.667c23.563,0,42.667-19.104,42.667-42.667V128.523
	C512,104.96,492.896,85.856,469.333,85.856"/>
<g>
	<rect x="44.405" y="130.251" style="fill:#40596B;" width="32.213" height="251.499"/>
	<rect x="435.381" y="130.251" style="fill:#40596B;" width="32.213" height="251.499"/>
	<rect x="243.285" y="130.251" style="fill:#40596B;" width="25.44" height="199.253"/>
	<rect x="171.413" y="130.251" style="fill:#40596B;" width="12.725" height="199.253"/>
	<rect x="91.52" y="130.251" style="fill:#40596B;" width="16.203" height="199.253"/>
	<rect x="208.8" y="130.251" style="fill:#40596B;" width="16.192" height="199.253"/>
	<rect x="321.493" y="130.251" style="fill:#40596B;" width="25.44" height="199.253"/>
	<rect x="285.739" y="130.251" style="fill:#40596B;" width="18.72" height="199.253"/>
	<rect x="404.277" y="130.251" style="fill:#40596B;" width="16.203" height="199.253"/>
	<rect x="126.528" y="130.251" style="fill:#40596B;" width="24.352" height="199.253"/>
	<rect x="361.589" y="130.251" style="fill:#40596B;" width="23.413" height="199.253"/>
	<path style="fill:#40596B;" d="M100.085,372.064c1.664,0,2.944-0.565,3.861-1.685c0.907-1.109,1.461-2.624,1.664-4.544
		c-1.632,1.088-3.403,1.643-5.312,1.643c-2.496,0-4.608-0.811-6.272-2.475c-1.685-1.643-2.517-3.829-2.517-6.539
		c0-2.731,0.907-4.917,2.709-6.56c1.813-1.643,4.085-2.475,6.837-2.475c1.899,0,3.531,0.373,4.939,1.109
		c1.397,0.725,2.475,1.728,3.285,3.04c1.504,2.539,2.261,5.728,2.261,9.547c0,2.453-0.299,4.608-0.896,6.475
		c-0.608,1.856-1.419,3.317-2.443,4.395c-2.101,2.144-4.661,3.232-7.659,3.232c-1.259,0-2.464-0.192-3.616-0.565
		s-2.016-0.725-2.613-1.109c-0.587-0.373-1.259-0.853-2.027-1.44l2.997-4.245c0.171,0.171,0.405,0.373,0.704,0.608
		c0.288,0.245,0.864,0.587,1.707,0.981C98.549,371.851,99.339,372.064,100.085,372.064 M100.907,362.379
		c1.184,0,2.187-0.352,2.976-1.045s1.184-1.6,1.184-2.731c0-1.131-0.373-2.101-1.141-2.912c-0.768-0.832-1.728-1.227-2.88-1.227
		c-1.163,0-2.101,0.352-2.837,1.109c-0.725,0.704-1.109,1.643-1.109,2.773s0.331,2.08,1.003,2.859
		C98.784,361.984,99.723,362.379,100.907,362.379"/>
	<path style="fill:#40596B;" d="M133.963,351.541c1.803-1.419,4.011-2.123,6.677-2.123c2.656,0,4.875,0.704,6.645,2.123
		c1.771,1.397,2.645,3.147,2.645,5.184c0,2.059-0.789,3.851-2.379,5.333c2.229,1.707,3.339,3.979,3.339,6.773
		c0,2.357-0.939,4.331-2.837,5.963c-1.899,1.6-4.373,2.421-7.413,2.421c-3.04,0-5.525-0.811-7.413-2.421
		c-1.899-1.621-2.848-3.605-2.848-5.963c0-2.795,1.109-5.067,3.339-6.773c-1.611-1.504-2.432-3.296-2.432-5.355
		C131.296,354.667,132.192,352.939,133.963,351.541 M137.717,371.317c0.896,0.608,1.867,0.896,2.912,0.896
		c1.045,0,2.016-0.288,2.912-0.896c0.907-0.608,1.344-1.483,1.344-2.645c0-1.141-0.427-2.016-1.301-2.645
		c-0.875-0.608-1.856-0.917-2.955-0.917c-1.099,0-2.08,0.309-2.955,0.917c-0.875,0.629-1.312,1.504-1.312,2.645
		C136.363,369.835,136.821,370.709,137.717,371.317 M138.069,359.563c0.736,0.629,1.579,0.917,2.56,0.917
		c0.981,0,1.835-0.288,2.549-0.917c0.736-0.608,1.099-1.376,1.099-2.272c0-0.917-0.352-1.685-1.077-2.293
		c-0.715-0.629-1.568-0.939-2.571-0.939c-1.003,0-1.867,0.309-2.581,0.939c-0.704,0.608-1.077,1.376-1.077,2.293
		C136.981,358.187,137.355,358.955,138.069,359.563"/>
	<polygon style="fill:#40596B;" points="170.048,358.645 170.048,350.037 189.451,350.037 189.451,354.56 178.571,376.896 
		172.043,376.896 182.421,355.189 175.659,355.189 175.659,358.645 	"/>
	<path style="fill:#40596B;" d="M220.299,354.56c-1.664,0-2.955,0.565-3.851,1.685c-0.917,1.109-1.483,2.624-1.675,4.544
		c1.653-1.067,3.424-1.621,5.301-1.621c2.517,0,4.608,0.832,6.283,2.475s2.507,3.808,2.507,6.539c0,2.731-0.896,4.917-2.709,6.56
		c-1.792,1.621-4.075,2.453-6.816,2.453c-1.899,0-3.541-0.373-4.939-1.109c-1.397-0.736-2.475-1.728-3.253-3.04
		c-1.547-2.539-2.315-5.707-2.315-9.547c0-2.453,0.299-4.608,0.917-6.453c0.597-1.877,1.419-3.339,2.464-4.416
		c2.048-2.144,4.597-3.232,7.605-3.232c1.259,0,2.464,0.192,3.595,0.565c1.141,0.373,2.027,0.747,2.635,1.12
		c0.619,0.395,1.301,0.875,2.037,1.483l-2.848,4.213c-0.16-0.149-0.373-0.352-0.672-0.608c-0.299-0.245-0.885-0.608-1.749-1.003
		C221.973,354.773,221.12,354.56,220.299,354.56 M219.509,364.245c-1.184,0-2.187,0.352-2.997,1.067
		c-0.8,0.704-1.195,1.621-1.195,2.752c0,1.131,0.373,2.08,1.152,2.891c0.768,0.811,1.728,1.205,2.88,1.205s2.112-0.352,2.88-1.067
		c0.768-0.725,1.152-1.643,1.152-2.795c0-1.152-0.341-2.101-1.035-2.891C221.643,364.651,220.704,364.245,219.509,364.245"/>
	<path style="fill:#40596B;" d="M265.952,350.037v5.184h-10.603v4.501c0.789-0.245,1.696-0.352,2.72-0.352
		c2.592,0,4.821,0.789,6.699,2.336c1.877,1.579,2.795,3.691,2.795,6.336c0,2.645-0.96,4.832-2.891,6.56
		c-1.931,1.728-4.309,2.603-7.168,2.603c-3.637,0-6.667-1.355-9.109-4.043l3.147-4.373c0.224,0.224,0.544,0.501,0.917,0.832
		c0.395,0.331,1.109,0.789,2.123,1.333c1.013,0.544,2.048,0.832,3.083,0.832c1.024,0,1.92-0.309,2.731-0.917
		c0.779-0.629,1.173-1.547,1.173-2.731c0-1.205-0.427-2.144-1.291-2.816c-0.843-0.651-1.963-0.96-3.317-0.96
		c-1.365,0-2.933,0.48-4.725,1.461l-2.485-2.709v-13.088h16.203V350.037z"/>
	<polygon style="fill:#40596B;" points="298.08,365.291 298.08,360.608 303.84,360.608 303.84,365.291 306.891,365.291 
		306.891,370.475 303.84,370.475 303.84,376.896 298.08,376.896 298.08,370.475 287.296,370.475 287.296,365.92 296.864,350.037 
		303.381,350.037 294.283,365.291 	"/>
	<path style="fill:#40596B;" d="M328.096,355.147v-5.109h16.448v4.149l-5.493,6.251c2.144,0.373,3.797,1.269,4.992,2.731
		c1.173,1.44,1.771,3.104,1.771,5.003c0,2.837-0.971,5.045-2.869,6.645c-1.909,1.579-4.352,2.4-7.328,2.4
		c-2.976,0-5.995-1.067-9.035-3.147l2.453-4.768c2.539,1.792,4.8,2.688,6.816,2.688c1.195,0,2.187-0.288,2.965-0.896
		c0.779-0.587,1.173-1.44,1.173-2.539c0-1.12-0.459-2.005-1.355-2.645c-0.896-0.672-2.133-0.981-3.733-0.981
		c-0.832,0-2.037,0.224-3.563,0.725v-4.437l5.141-6.059h-8.384V355.147z"/>
	<path style="fill:#40596B;" d="M377.344,360.501c0.683-0.96,1.024-1.877,1.024-2.773s-0.288-1.643-0.875-2.251
		c-0.608-0.608-1.355-0.896-2.272-0.896c-1.685,0-3.296,1.184-4.8,3.605l-4.811-2.859c1.259-1.941,2.635-3.413,4.139-4.416
		c1.504-1.003,3.403-1.504,5.728-1.504c2.315,0,4.352,0.747,6.101,2.208c1.76,1.483,2.635,3.477,2.635,6.016
		c0,1.376-0.352,2.709-1.056,3.979c-0.704,1.248-2.005,2.88-3.915,4.853l-4.832,5.045h10.603v5.376H366.08v-4.459l7.872-8.064
		C375.531,362.752,376.672,361.461,377.344,360.501"/>
	<polygon style="fill:#40596B;" points="408.363,348.501 420.491,348.501 420.491,378.453 414.048,378.453 414.048,354.208 
		408.363,354.208 	"/>
</g>
<g>
</g>
<g>
</g>
<g>
</g>
<g>
</g>
<g>
</g>
<g>
</g>
<g>
</g>
<g>
</g>
<g>
</g>
<g>
</g>
<g>
</g>
<g>
</g>
<g>
</g>
<g>
</g>
<g>
</g>
</svg>
