<?xml version="1.0" encoding="iso-8859-1"?>
<!-- Generator: Adobe Illustrator 19.0.0, SVG Export Plug-In . SVG Version: 6.00 Build 0)  -->
<svg version="1.1" id="Capa_1" xmlns="http://www.w3.org/2000/svg" xmlns:xlink="http://www.w3.org/1999/xlink" x="0px" y="0px"
	 viewBox="0 0 512 512" style="enable-background:new 0 0 512 512;" xml:space="preserve">
<g>
	
		<linearGradient id="SVGID_1_" gradientUnits="userSpaceOnUse" x1="-43.4248" y1="606.7109" x2="16.6592" y2="606.7109" gradientTransform="matrix(8.5333 0 0 -8.5333 369.1334 5433.2671)">
		<stop  offset="0" style="stop-color:#00A2CC"/>
		<stop  offset="1" style="stop-color:#2B32B2"/>
	</linearGradient>
	<path style="fill:url(#SVGID_1_);" d="M477.867,441.591c-0.333-82.304-46.37-157.602-119.467-195.413v-58.445h17.067
		c18.85,0,34.133-15.283,34.133-34.133s-15.283-34.133-34.133-34.133H358.4V102.4C358.4,45.85,312.55,0,256,0
		S153.6,45.85,153.6,102.4v17.067h-17.067c-18.85,0-34.133,15.283-34.133,34.133s15.283,34.133,34.133,34.133H153.6v58.436
		C80.503,283.981,34.466,359.279,34.133,441.583V512h443.733V441.591z M358.4,136.533h17.067c9.429,0,17.067,7.637,17.067,17.067
		c0,9.429-7.637,17.067-17.067,17.067H358.4V136.533z M256,17.067c41.421,0.068,76.817,29.85,83.977,70.647L256,110.618
		l-83.977-22.903C179.183,46.916,214.579,17.135,256,17.067z M170.667,119.467v-14.43L256,128.316l85.333-23.279v168.03
		c0,47.13-38.204,85.333-85.333,85.333s-85.333-38.204-85.333-85.333V119.467z M136.533,170.667
		c-9.429,0-17.067-7.637-17.067-17.067c0-9.429,7.637-17.067,17.067-17.067H153.6v34.133H136.533z M460.8,494.933H51.2v-53.342
		c0.273-72.781,39.296-139.895,102.4-176.154v7.629c0,56.55,45.85,102.4,102.4,102.4s102.4-45.85,102.4-102.4v-7.629
		c63.104,36.258,102.127,103.373,102.4,176.154V494.933z"/>
	
		<linearGradient id="SVGID_2_" gradientUnits="userSpaceOnUse" x1="-43.4248" y1="617.7109" x2="16.6592" y2="617.7109" gradientTransform="matrix(8.5333 0 0 -8.5333 369.1334 5433.2671)">
		<stop  offset="0" style="stop-color:#00A2CC"/>
		<stop  offset="1" style="stop-color:#2B32B2"/>
	</linearGradient>
	<circle style="fill:url(#SVGID_2_);" cx="204.8" cy="162.133" r="17.067"/>
	
		<linearGradient id="SVGID_3_" gradientUnits="userSpaceOnUse" x1="-43.4248" y1="617.7109" x2="16.6592" y2="617.7109" gradientTransform="matrix(8.5333 0 0 -8.5333 369.1334 5433.2671)">
		<stop  offset="0" style="stop-color:#00A2CC"/>
		<stop  offset="1" style="stop-color:#2B32B2"/>
	</linearGradient>
	<circle style="fill:url(#SVGID_3_);" cx="307.2" cy="162.133" r="17.067"/>
	
		<linearGradient id="SVGID_4_" gradientUnits="userSpaceOnUse" x1="-43.4248" y1="602.7109" x2="16.6592" y2="602.7109" gradientTransform="matrix(8.5333 0 0 -8.5333 369.1334 5433.2671)">
		<stop  offset="0" style="stop-color:#00A2CC"/>
		<stop  offset="1" style="stop-color:#2B32B2"/>
	</linearGradient>
	<path style="fill:url(#SVGID_4_);" d="M196.267,264.533c0,32.99,26.743,59.733,59.733,59.733s59.733-26.743,59.733-59.733V256
		H196.267V264.533z M297.813,273.067c-4.693,23.091-27.213,38.016-50.304,33.323c-16.794-3.413-29.909-16.529-33.323-33.323H297.813
		z"/>
	
		<linearGradient id="SVGID_5_" gradientUnits="userSpaceOnUse" x1="-43.4248" y1="611.7109" x2="16.6592" y2="611.7109" gradientTransform="matrix(8.5333 0 0 -8.5333 369.1334 5433.2671)">
		<stop  offset="0" style="stop-color:#00A2CC"/>
		<stop  offset="1" style="stop-color:#2B32B2"/>
	</linearGradient>
	<rect x="247.467" y="187.733" style="fill:url(#SVGID_5_);" width="17.067" height="51.2"/>
	
		<linearGradient id="SVGID_6_" gradientUnits="userSpaceOnUse" x1="-43.4248" y1="588.7109" x2="16.6592" y2="588.7109" gradientTransform="matrix(8.5333 0 0 -8.5333 369.1334 5433.2671)">
		<stop  offset="0" style="stop-color:#00A2CC"/>
		<stop  offset="1" style="stop-color:#2B32B2"/>
	</linearGradient>
	<rect x="332.8" y="401.067" style="fill:url(#SVGID_6_);" width="68.267" height="17.067"/>
</g>
<g>
</g>
<g>
</g>
<g>
</g>
<g>
</g>
<g>
</g>
<g>
</g>
<g>
</g>
<g>
</g>
<g>
</g>
<g>
</g>
<g>
</g>
<g>
</g>
<g>
</g>
<g>
</g>
<g>
</g>
</svg>
