<?xml version="1.0" encoding="iso-8859-1"?>
<!-- Generator: Adobe Illustrator 21.0.0, SVG Export Plug-In . SVG Version: 6.00 Build 0)  -->
<svg xmlns="http://www.w3.org/2000/svg" xmlns:xlink="http://www.w3.org/1999/xlink" version="1.1" id="Capa_1" x="0px" y="0px" viewBox="0 0 512 512" style="enable-background:new 0 0 512 512;" xml:space="preserve" width="512" height="512">
<g>
	<path style="fill:#0095FF;" d="M469,409.462H43c-8.284,0-15-6.716-15-15v-316c0-24.813,20.187-45,45-45h366   c24.813,0,45,20.187,45,45v316C484,402.746,477.284,409.462,469,409.462z"/>
	<path style="fill:#0063E5;" d="M439,33.462H256.333v376H469c8.284,0,15-6.716,15-15v-316C484,53.648,463.813,33.462,439,33.462z"/>
	<path style="fill:#212CBB;" d="M497,511.539H15c-8.284,0-15-6.716-15-15V394.462c0-8.284,6.716-15,15-15h482   c8.284,0,15,6.716,15,15v102.077C512,504.823,505.284,511.539,497,511.539z"/>
	<path style="fill:#00215A;" d="M497,379.462H256.333v132.077H497c8.284,0,15-6.716,15-15V394.462   C512,386.177,505.284,379.462,497,379.462z"/>
	<path style="fill:#E8F6FC;" d="M273.136,460.501h-34.272c-8.284,0-15-6.716-15-15s6.716-15,15-15h34.272c8.284,0,15,6.716,15,15   S281.42,460.501,273.136,460.501z"/>
	<path style="fill:#E8F6FC;" d="M205.001,240.459h-110c-8.284,0-15-6.716-15-15V15.462c0-4.894,2.387-9.479,6.395-12.286   c4.009-2.807,9.135-3.481,13.731-1.811l22.374,8.136l22.374-8.136c3.311-1.205,6.941-1.205,10.252,0l22.374,8.136l22.374-8.136   c4.598-1.672,9.723-0.996,13.731,1.811c4.008,2.808,6.395,7.393,6.395,12.286v209.997   C220.001,233.743,213.285,240.459,205.001,240.459z"/>
	<path style="fill:#CEE2E9;" d="M213.606,3.176c-4.009-2.807-9.134-3.482-13.731-1.811l-22.374,8.136l-22.374-8.136   c-1.655-0.603-3.391-0.904-5.126-0.904v239.998h55c8.284,0,15-6.716,15-15V15.462C220.001,10.568,217.614,5.983,213.606,3.176z"/>
	<path style="fill:#CEE2E9;" d="M438.167,169.501h-136c-8.284,0-15-6.716-15-15v-56c0-8.284,6.716-15,15-15h136   c8.284,0,15,6.716,15,15v56C453.167,162.785,446.451,169.501,438.167,169.501z"/>
	<path style="fill-rule:evenodd;clip-rule:evenodd;fill:#CEE2E9;" d="M308.167,229.501c8.262,0,15-6.738,15-15s-6.739-15-15-15   c-8.262,0-15,6.738-15,15S299.905,229.501,308.167,229.501z"/>
	<path style="fill-rule:evenodd;clip-rule:evenodd;fill:#CEE2E9;" d="M368.167,229.501c8.262,0,15-6.738,15-15s-6.739-15-15-15   c-8.262,0-15,6.738-15,15S359.905,229.501,368.167,229.501z"/>
	<path style="fill-rule:evenodd;clip-rule:evenodd;fill:#CEE2E9;" d="M428.167,229.501c8.262,0,15-6.738,15-15s-6.739-15-15-15   c-8.262,0-15,6.738-15,15S419.905,229.501,428.167,229.501z"/>
	<path style="fill-rule:evenodd;clip-rule:evenodd;fill:#CEE2E9;" d="M308.167,289.501c8.262,0,15-6.739,15-15   c0-8.262-6.739-15-15-15c-8.262,0-15,6.738-15,15C293.167,282.763,299.905,289.501,308.167,289.501z"/>
	<path style="fill-rule:evenodd;clip-rule:evenodd;fill:#CEE2E9;" d="M368.167,289.501c8.262,0,15-6.739,15-15   c0-8.262-6.739-15-15-15c-8.262,0-15,6.738-15,15C353.167,282.763,359.905,289.501,368.167,289.501z"/>
	<path style="fill-rule:evenodd;clip-rule:evenodd;fill:#CEE2E9;" d="M428.167,289.501c8.262,0,15-6.739,15-15   c0-8.262-6.739-15-15-15c-8.262,0-15,6.738-15,15C413.167,282.763,419.905,289.501,428.167,289.501z"/>
	<path style="fill-rule:evenodd;clip-rule:evenodd;fill:#CEE2E9;" d="M308.167,349.501c8.262,0,15-6.738,15-15s-6.739-15-15-15   c-8.262,0-15,6.738-15,15S299.905,349.501,308.167,349.501z"/>
	<path style="fill-rule:evenodd;clip-rule:evenodd;fill:#CEE2E9;" d="M368.167,349.501c8.262,0,15-6.738,15-15s-6.739-15-15-15   c-8.262,0-15,6.738-15,15S359.905,349.501,368.167,349.501z"/>
	<path style="fill-rule:evenodd;clip-rule:evenodd;fill:#CEE2E9;" d="M428.167,349.501c8.262,0,15-6.738,15-15s-6.739-15-15-15   c-8.262,0-15,6.738-15,15S419.905,349.501,428.167,349.501z"/>
	<path style="fill:#212CBB;" d="M222.001,240.461h-144c-8.284,0-15-6.716-15-15s6.716-15,15-15h144c8.284,0,15,6.716,15,15   S230.285,240.461,222.001,240.461z"/>
	<path style="fill:#CEE2E9;" d="M273.136,430.501h-16.802v30h16.802c8.284,0,15-6.716,15-15S281.42,430.501,273.136,430.501z"/>
	<path style="fill:#212CBB;" d="M222.001,240.461h-144c-8.284,0-15-6.716-15-15s6.716-15,15-15h144c8.284,0,15,6.716,15,15   S230.285,240.461,222.001,240.461z"/>
	<path style="fill:#00215A;" d="M222.001,210.461h-72v30h72c8.284,0,15-6.716,15-15S230.285,210.461,222.001,210.461z"/>
</g>















</svg>
