<?xml version="1.0" encoding="iso-8859-1"?>
<!-- Generator: Adobe Illustrator 19.0.0, SVG Export Plug-In . SVG Version: 6.00 Build 0)  -->
<svg version="1.1" id="Capa_1" xmlns="http://www.w3.org/2000/svg" xmlns:xlink="http://www.w3.org/1999/xlink" x="0px" y="0px"
	 viewBox="0 0 480 480" style="enable-background:new 0 0 480 480;" xml:space="preserve">
<linearGradient id="SVGID_1_" gradientUnits="userSpaceOnUse" x1="-58.61" y1="587.625" x2="5.475" y2="587.625" gradientTransform="matrix(8 0 0 -8 455 4941)">
	<stop  offset="0" style="stop-color:#00A2CC"/>
	<stop  offset="1" style="stop-color:#2B32B2"/>
</linearGradient>
<path style="fill:url(#SVGID_1_);" d="M48,0H32v16H0v16h32v32H0v16h32v32H0v16h32v32H0v16h32v32H0v16h32v32H0v16h32v32H0v16h32v32H0
	v16h32v32H0v16h32v32h80v32h16v-32h80v32h16v-32h80v32h16v-32h80v32h16v-32h64v-16H48V0z"/>
<g>
	
		<linearGradient id="SVGID_2_" gradientUnits="userSpaceOnUse" x1="-58.61" y1="572.625" x2="5.475" y2="572.625" gradientTransform="matrix(8 0 0 -8 455 4941)">
		<stop  offset="0" style="stop-color:#00A2CC"/>
		<stop  offset="1" style="stop-color:#2B32B2"/>
	</linearGradient>
	<path style="fill:url(#SVGID_2_);" d="M160,304H80v112h80V304z M144,400H96v-80h48V400z"/>
	
		<linearGradient id="SVGID_3_" gradientUnits="userSpaceOnUse" x1="-58.61" y1="576.625" x2="5.475" y2="576.625" gradientTransform="matrix(8 0 0 -8 455 4941)">
		<stop  offset="0" style="stop-color:#00A2CC"/>
		<stop  offset="1" style="stop-color:#2B32B2"/>
	</linearGradient>
	<path style="fill:url(#SVGID_3_);" d="M256,240h-80v176h80V240z M240,400h-48V256h48V400z"/>
	
		<linearGradient id="SVGID_4_" gradientUnits="userSpaceOnUse" x1="-58.61" y1="579.625" x2="5.475" y2="579.625" gradientTransform="matrix(8 0 0 -8 455 4941)">
		<stop  offset="0" style="stop-color:#00A2CC"/>
		<stop  offset="1" style="stop-color:#2B32B2"/>
	</linearGradient>
	<path style="fill:url(#SVGID_4_);" d="M352,192h-80v224h80V192z M336,400h-48V208h48V400z"/>
	
		<linearGradient id="SVGID_5_" gradientUnits="userSpaceOnUse" x1="-58.61" y1="585.625" x2="5.475" y2="585.625" gradientTransform="matrix(8 0 0 -8 455 4941)">
		<stop  offset="0" style="stop-color:#00A2CC"/>
		<stop  offset="1" style="stop-color:#2B32B2"/>
	</linearGradient>
	<path style="fill:url(#SVGID_5_);" d="M448,96h-80v320h80V96z M432,400h-48V112h48V400z"/>
</g>
<linearGradient id="SVGID_6_" gradientUnits="userSpaceOnUse" x1="-65.8572" y1="601.5322" x2="-10.6552" y2="568.9872" gradientTransform="matrix(6.888 -4.064 -4.064 -6.888 2884.384 4070.0559)">
	<stop  offset="0" style="stop-color:#00A2CC"/>
	<stop  offset="1" style="stop-color:#2B32B2"/>
</linearGradient>
<path style="fill:url(#SVGID_6_);" d="M108.694,195.537l27.545-16.252l8.128,13.776l-27.545,16.252L108.694,195.537z"/>
<linearGradient id="SVGID_7_" gradientUnits="userSpaceOnUse" x1="-63.7786" y1="613.2784" x2="-8.5576" y2="580.7675" gradientTransform="matrix(6.8937 -4.0592 -4.0592 -6.8937 2915.2075 4129.9624)">
	<stop  offset="0" style="stop-color:#00A2CC"/>
	<stop  offset="1" style="stop-color:#2B32B2"/>
</linearGradient>
<path style="fill:url(#SVGID_7_);" d="M193.895,182.611l96.512-56.829l8.118,13.787l-96.512,56.829L193.895,182.611z"/>
<linearGradient id="SVGID_8_" gradientUnits="userSpaceOnUse" x1="-65.0991" y1="602.8975" x2="-9.8961" y2="570.3514" gradientTransform="matrix(6.888 -4.064 -4.064 -6.888 2884.696 4093.8799)">
	<stop  offset="0" style="stop-color:#00A2CC"/>
	<stop  offset="1" style="stop-color:#2B32B2"/>
</linearGradient>
<path style="fill:url(#SVGID_8_);" d="M152.491,206.863l27.545-16.252l8.128,13.776l-27.545,16.252L152.491,206.863z"/>
<linearGradient id="SVGID_9_" gradientUnits="userSpaceOnUse" x1="-65.6869" y1="598.1705" x2="-10.4739" y2="565.6405" gradientTransform="matrix(6.8925 -4.0613 -4.0613 -6.8925 2868.2063 4082.1504)">
	<stop  offset="0" style="stop-color:#00A2CC"/>
	<stop  offset="1" style="stop-color:#2B32B2"/>
</linearGradient>
<path style="fill:url(#SVGID_9_);" d="M124.955,223.209l13.792-8.127l8.123,13.785l-13.792,8.127L124.955,223.209z"/>
<linearGradient id="SVGID_10_" gradientUnits="userSpaceOnUse" x1="-58.61" y1="603.043" x2="5.475" y2="603.043" gradientTransform="matrix(8 0 0 -8 455 4941)">
	<stop  offset="0" style="stop-color:#00A2CC"/>
	<stop  offset="1" style="stop-color:#2B32B2"/>
</linearGradient>
<path style="fill:url(#SVGID_10_);" d="M316.304,48.256l-4,15.488l14.16,3.664L150.08,171.272l8.12,13.784L334.576,81.192
	l-3.664,14.16l15.488,4.016l10.512-40.608L316.304,48.256z"/>
<g>
</g>
<g>
</g>
<g>
</g>
<g>
</g>
<g>
</g>
<g>
</g>
<g>
</g>
<g>
</g>
<g>
</g>
<g>
</g>
<g>
</g>
<g>
</g>
<g>
</g>
<g>
</g>
<g>
</g>
</svg>
