<?xml version="1.0" encoding="iso-8859-1"?>
<!-- Generator: Adobe Illustrator 19.0.0, SVG Export Plug-In . SVG Version: 6.00 Build 0)  -->
<svg version="1.1" id="Capa_1" xmlns="http://www.w3.org/2000/svg" xmlns:xlink="http://www.w3.org/1999/xlink" x="0px" y="0px"
	 viewBox="0 0 512 512" style="enable-background:new 0 0 512 512;" xml:space="preserve">
<g>
	
		<linearGradient id="SVGID_1_" gradientUnits="userSpaceOnUse" x1="-43.0908" y1="606.7109" x2="17.3222" y2="606.7109" gradientTransform="matrix(8.5333 0 0 -8.5333 369.1334 5433.2671)">
		<stop  offset="0" style="stop-color:#00A2CC"/>
		<stop  offset="1" style="stop-color:#2B32B2"/>
	</linearGradient>
	<path style="fill:url(#SVGID_1_);" d="M446.575,0H93.867c-4.71,0-8.533,3.823-8.533,8.533V409.6h-76.8
		c-4.71,0-8.533,3.823-8.533,8.533v28.442C0.034,482.697,29.303,511.966,65.425,512h352.708c4.71,0,8.533-3.823,8.533-8.533V102.4
		h76.8c4.71,0,8.533-3.823,8.533-8.533V65.425C511.966,29.303,482.697,0.034,446.575,0z M85.333,494.933H65.425
		c-26.692-0.026-48.333-21.666-48.358-48.358v-19.908h68.267V494.933z M409.6,494.933H102.4V17.067h307.2V494.933z M494.933,85.333
		h-68.267V17.067h19.908c26.692,0.026,48.333,21.666,48.358,48.358V85.333z"/>
	
		<linearGradient id="SVGID_2_" gradientUnits="userSpaceOnUse" x1="-43.0908" y1="613.705" x2="17.3222" y2="613.705" gradientTransform="matrix(8.5333 0 0 -8.5333 369.1334 5433.2671)">
		<stop  offset="0" style="stop-color:#00A2CC"/>
		<stop  offset="1" style="stop-color:#2B32B2"/>
	</linearGradient>
	<path style="fill:url(#SVGID_2_);" d="M164.634,227.9c3.328,3.328,8.738,3.328,12.066,0l51.2-51.2
		c3.277-3.388,3.183-8.789-0.213-12.066c-3.311-3.191-8.55-3.191-11.853,0l-45.167,45.167L151.1,190.234
		c-3.388-3.277-8.789-3.183-12.066,0.213c-3.191,3.311-3.191,8.55,0,11.853L164.634,227.9z"/>
	
		<linearGradient id="SVGID_3_" gradientUnits="userSpaceOnUse" x1="-43.0908" y1="599.7109" x2="17.3222" y2="599.7109" gradientTransform="matrix(8.5333 0 0 -8.5333 369.1334 5433.2671)">
		<stop  offset="0" style="stop-color:#00A2CC"/>
		<stop  offset="1" style="stop-color:#2B32B2"/>
	</linearGradient>
	<path style="fill:url(#SVGID_3_);" d="M145.067,358.4h68.267c4.71,0,8.533-3.823,8.533-8.533V281.6c0-4.71-3.823-8.533-8.533-8.533
		h-68.267c-4.71,0-8.533,3.823-8.533,8.533v68.267C136.533,354.577,140.356,358.4,145.067,358.4z M153.6,290.133h51.2v51.2h-51.2
		V290.133z"/>
	
		<linearGradient id="SVGID_4_" gradientUnits="userSpaceOnUse" x1="-43.0908" y1="601.7109" x2="17.3222" y2="601.7109" gradientTransform="matrix(8.5333 0 0 -8.5333 369.1334 5433.2671)">
		<stop  offset="0" style="stop-color:#00A2CC"/>
		<stop  offset="1" style="stop-color:#2B32B2"/>
	</linearGradient>
	<path style="fill:url(#SVGID_4_);" d="M264.533,307.2h102.4c4.71,0,8.533-3.823,8.533-8.533s-3.823-8.533-8.533-8.533h-102.4
		c-4.71,0-8.533,3.823-8.533,8.533S259.823,307.2,264.533,307.2z"/>
	
		<linearGradient id="SVGID_5_" gradientUnits="userSpaceOnUse" x1="-43.0908" y1="597.7109" x2="17.3222" y2="597.7109" gradientTransform="matrix(8.5333 0 0 -8.5333 369.1334 5433.2671)">
		<stop  offset="0" style="stop-color:#00A2CC"/>
		<stop  offset="1" style="stop-color:#2B32B2"/>
	</linearGradient>
	<path style="fill:url(#SVGID_5_);" d="M264.533,341.333h102.4c4.71,0,8.533-3.823,8.533-8.533s-3.823-8.533-8.533-8.533h-102.4
		c-4.71,0-8.533,3.823-8.533,8.533S259.823,341.333,264.533,341.333z"/>
	
		<linearGradient id="SVGID_6_" gradientUnits="userSpaceOnUse" x1="-43.0908" y1="585.7109" x2="17.3222" y2="585.7109" gradientTransform="matrix(8.5333 0 0 -8.5333 369.1334 5433.2671)">
		<stop  offset="0" style="stop-color:#00A2CC"/>
		<stop  offset="1" style="stop-color:#2B32B2"/>
	</linearGradient>
	<path style="fill:url(#SVGID_6_);" d="M145.067,477.867h68.267c4.71,0,8.533-3.823,8.533-8.533v-68.267
		c0-4.71-3.823-8.533-8.533-8.533h-68.267c-4.71,0-8.533,3.823-8.533,8.533v68.267C136.533,474.044,140.356,477.867,145.067,477.867
		z M153.6,409.6h51.2v51.2h-51.2V409.6z"/>
	
		<linearGradient id="SVGID_7_" gradientUnits="userSpaceOnUse" x1="-43.0908" y1="587.7109" x2="17.3222" y2="587.7109" gradientTransform="matrix(8.5333 0 0 -8.5333 369.1334 5433.2671)">
		<stop  offset="0" style="stop-color:#00A2CC"/>
		<stop  offset="1" style="stop-color:#2B32B2"/>
	</linearGradient>
	<path style="fill:url(#SVGID_7_);" d="M264.533,426.667h102.4c4.71,0,8.533-3.823,8.533-8.533s-3.823-8.533-8.533-8.533h-102.4
		c-4.71,0-8.533,3.823-8.533,8.533S259.823,426.667,264.533,426.667z"/>
	
		<linearGradient id="SVGID_8_" gradientUnits="userSpaceOnUse" x1="-43.0908" y1="583.7109" x2="17.3222" y2="583.7109" gradientTransform="matrix(8.5333 0 0 -8.5333 369.1334 5433.2671)">
		<stop  offset="0" style="stop-color:#00A2CC"/>
		<stop  offset="1" style="stop-color:#2B32B2"/>
	</linearGradient>
	<path style="fill:url(#SVGID_8_);" d="M264.533,460.8h102.4c4.71,0,8.533-3.823,8.533-8.533s-3.823-8.533-8.533-8.533h-102.4
		c-4.71,0-8.533,3.823-8.533,8.533S259.823,460.8,264.533,460.8z"/>
	
		<linearGradient id="SVGID_9_" gradientUnits="userSpaceOnUse" x1="-43.0908" y1="627.7109" x2="17.3222" y2="627.7109" gradientTransform="matrix(8.5333 0 0 -8.5333 369.1334 5433.2671)">
		<stop  offset="0" style="stop-color:#00A2CC"/>
		<stop  offset="1" style="stop-color:#2B32B2"/>
	</linearGradient>
	<path style="fill:url(#SVGID_9_);" d="M145.067,119.467h68.267c4.71,0,8.533-3.823,8.533-8.533V42.667
		c0-4.71-3.823-8.533-8.533-8.533h-68.267c-4.71,0-8.533,3.823-8.533,8.533v68.267C136.533,115.644,140.356,119.467,145.067,119.467
		z M153.6,51.2h51.2v51.2h-51.2V51.2z"/>
	
		<linearGradient id="SVGID_10_" gradientUnits="userSpaceOnUse" x1="-43.0908" y1="629.7109" x2="17.3222" y2="629.7109" gradientTransform="matrix(8.5333 0 0 -8.5333 369.1334 5433.2671)">
		<stop  offset="0" style="stop-color:#00A2CC"/>
		<stop  offset="1" style="stop-color:#2B32B2"/>
	</linearGradient>
	<path style="fill:url(#SVGID_10_);" d="M264.533,68.267h102.4c4.71,0,8.533-3.823,8.533-8.533s-3.823-8.533-8.533-8.533h-102.4
		c-4.71,0-8.533,3.823-8.533,8.533S259.823,68.267,264.533,68.267z"/>
	
		<linearGradient id="SVGID_11_" gradientUnits="userSpaceOnUse" x1="-43.0908" y1="625.7109" x2="17.3222" y2="625.7109" gradientTransform="matrix(8.5333 0 0 -8.5333 369.1334 5433.2671)">
		<stop  offset="0" style="stop-color:#00A2CC"/>
		<stop  offset="1" style="stop-color:#2B32B2"/>
	</linearGradient>
	<path style="fill:url(#SVGID_11_);" d="M264.533,102.4h102.4c4.71,0,8.533-3.823,8.533-8.533c0-4.71-3.823-8.533-8.533-8.533
		h-102.4c-4.71,0-8.533,3.823-8.533,8.533C256,98.577,259.823,102.4,264.533,102.4z"/>
	
		<linearGradient id="SVGID_12_" gradientUnits="userSpaceOnUse" x1="-43.0908" y1="615.7109" x2="17.3222" y2="615.7109" gradientTransform="matrix(8.5333 0 0 -8.5333 369.1334 5433.2671)">
		<stop  offset="0" style="stop-color:#00A2CC"/>
		<stop  offset="1" style="stop-color:#2B32B2"/>
	</linearGradient>
	<path style="fill:url(#SVGID_12_);" d="M264.533,187.733h102.4c4.71,0,8.533-3.823,8.533-8.533s-3.823-8.533-8.533-8.533h-102.4
		c-4.71,0-8.533,3.823-8.533,8.533S259.823,187.733,264.533,187.733z"/>
	
		<linearGradient id="SVGID_13_" gradientUnits="userSpaceOnUse" x1="-43.0908" y1="611.7109" x2="17.3222" y2="611.7109" gradientTransform="matrix(8.5333 0 0 -8.5333 369.1334 5433.2671)">
		<stop  offset="0" style="stop-color:#00A2CC"/>
		<stop  offset="1" style="stop-color:#2B32B2"/>
	</linearGradient>
	<path style="fill:url(#SVGID_13_);" d="M264.533,221.867h102.4c4.71,0,8.533-3.823,8.533-8.533s-3.823-8.533-8.533-8.533h-102.4
		c-4.71,0-8.533,3.823-8.533,8.533S259.823,221.867,264.533,221.867z"/>
</g>
<g>
</g>
<g>
</g>
<g>
</g>
<g>
</g>
<g>
</g>
<g>
</g>
<g>
</g>
<g>
</g>
<g>
</g>
<g>
</g>
<g>
</g>
<g>
</g>
<g>
</g>
<g>
</g>
<g>
</g>
</svg>
