<?xml version="1.0" encoding="iso-8859-1"?>
<!-- Generator: Adobe Illustrator 19.0.0, SVG Export Plug-In . SVG Version: 6.00 Build 0)  -->
<svg version="1.1" id="Capa_1" xmlns="http://www.w3.org/2000/svg" xmlns:xlink="http://www.w3.org/1999/xlink" x="0px" y="0px"
	 viewBox="0 0 512 512" style="enable-background:new 0 0 512 512;" xml:space="preserve">
<linearGradient id="SVGID_1_" gradientUnits="userSpaceOnUse" x1="-40.3263" y1="575.1743" x2="32.4757" y2="647.9723" gradientTransform="matrix(8 0 0 -8 343 5085)">
	<stop  offset="0" style="stop-color:#003F8A"/>
	<stop  offset="0.518" style="stop-color:#00D7DF"/>
	<stop  offset="1" style="stop-color:#006DF0"/>
</linearGradient>
<path style="fill:url(#SVGID_1_);" d="M176,376H88v-88c0-4.418-3.582-8-8-8H40c-4.418,0-8,3.582-8,8v216c0,4.418,3.582,8,8,8
	s8-3.582,8-8v-72h120v72c0,4.418,3.582,8,8,8s8-3.582,8-8V384C184,379.582,180.418,376,176,376z M48,296h24v88c0,4.418,3.582,8,8,8
	h88v24H48V296z"/>
<linearGradient id="SVGID_2_" gradientUnits="userSpaceOnUse" x1="-18.826" y1="553.674" x2="53.974" y2="626.474" gradientTransform="matrix(8 0 0 -8 343 5085)">
	<stop  offset="0" style="stop-color:#003F8A"/>
	<stop  offset="0.518" style="stop-color:#00D7DF"/>
	<stop  offset="1" style="stop-color:#006DF0"/>
</linearGradient>
<path style="fill:url(#SVGID_2_);" d="M472,280h-40c-4.418,0-8,3.582-8,8v88h-88c-4.418,0-8,3.582-8,8v120c0,4.418,3.582,8,8,8
	s8-3.582,8-8v-72h120v72c0,4.418,3.582,8,8,8s8-3.582,8-8V288C480,283.582,476.418,280,472,280z M344,392h88c4.418,0,8-3.582,8-8
	v-88h24v120H344V392z"/>
<linearGradient id="SVGID_3_" gradientUnits="userSpaceOnUse" x1="-33.3264" y1="568.1744" x2="39.4756" y2="640.9724" gradientTransform="matrix(8 0 0 -8 343 5085)">
	<stop  offset="0" style="stop-color:#003F8A"/>
	<stop  offset="0.518" style="stop-color:#00D7DF"/>
	<stop  offset="1" style="stop-color:#006DF0"/>
</linearGradient>
<path style="fill:url(#SVGID_3_);" d="M376,360c4.418,0,8-3.582,8-8v-32c0-4.418-3.582-8-8-8H136c-4.418,0-8,3.582-8,8v32
	c0,4.418,3.582,8,8,8h96v144c0,4.418,3.582,8,8,8h32c4.418,0,8-3.582,8-8V360H376z M144,328h224v16H144V328z M264,496h-16V360h16
	V496z"/>
<linearGradient id="SVGID_4_" gradientUnits="userSpaceOnUse" x1="-54.077" y1="588.923" x2="18.725" y2="661.725" gradientTransform="matrix(8 0 0 -8 343 5085)">
	<stop  offset="0" style="stop-color:#003F8A"/>
	<stop  offset="0.518" style="stop-color:#00D7DF"/>
	<stop  offset="1" style="stop-color:#006DF0"/>
</linearGradient>
<path style="fill:url(#SVGID_4_);" d="M504,0H8C3.582,0,0,3.582,0,8v40c0,4.418,3.582,8,8,8h240v24h-16
	c-22.08,0.026-39.974,17.92-40,40v80c0,4.418,3.582,8,8,8h112c4.418,0,8-3.582,8-8v-80c-0.026-22.08-17.92-39.974-40-40h-16V56h240
	c4.418,0,8-3.582,8-8V8C512,3.582,508.418,0,504,0z M304,120v72h-96v-72c0-13.255,10.745-24,24-24h48
	C293.255,96,304,106.745,304,120z M496,40H16V16h480V40z"/>
<g>
</g>
<g>
</g>
<g>
</g>
<g>
</g>
<g>
</g>
<g>
</g>
<g>
</g>
<g>
</g>
<g>
</g>
<g>
</g>
<g>
</g>
<g>
</g>
<g>
</g>
<g>
</g>
<g>
</g>
</svg>
