<?xml version="1.0" encoding="iso-8859-1"?>
<!-- Generator: Adobe Illustrator 19.0.0, SVG Export Plug-In . SVG Version: 6.00 Build 0)  -->
<svg version="1.1" id="Capa_1" xmlns="http://www.w3.org/2000/svg" xmlns:xlink="http://www.w3.org/1999/xlink" x="0px" y="0px"
	 viewBox="0 0 480.08 480.08" style="enable-background:new 0 0 480.08 480.08;" xml:space="preserve">
<linearGradient id="SVGID_1_" gradientUnits="userSpaceOnUse" x1="-58.9481" y1="587.625" x2="4.4549" y2="587.625" gradientTransform="matrix(8 0 0 -8 454.7205 4941)">
	<stop  offset="0" style="stop-color:#00A2CC"/>
	<stop  offset="1" style="stop-color:#2B32B2"/>
</linearGradient>
<path style="fill:url(#SVGID_1_);" d="M32.04,24v432c0,13.255,10.745,24,24,24h224c13.255,0,24-10.745,24-24V288h96
	c27.816,0,48-18.504,48-44V144c0-30.504-13.848-48-38-48h-106V24c0-13.255-10.745-24-24-24h-224C42.785,0,32.04,10.745,32.04,24z
	 M288.04,456c0,4.418-3.582,8-8,8h-224c-4.418,0-8-3.582-8-8v-40h240V456z M288.04,400h-240V64h240v32h-48
	c-26.499,0.026-47.974,21.501-48,48v136c0,4.418,3.582,8,8,8h17.416l-24.616,52.6c-1.878,3.999-0.158,8.764,3.842,10.642
	c2.639,1.239,5.744,0.944,8.102-0.77l83.256-60.576V400z M410.04,112c5.44,0,22,0,22,32v100c0,19.2-16.584,28-32,28h-112
	c-1.69,0-3.337,0.535-4.704,1.528L220.48,319.24l16.8-35.84c1.878-3.999,0.158-8.764-3.842-10.642
	c-1.063-0.499-2.224-0.758-3.398-0.758h-22V144c0-17.673,14.327-32,32-32L410.04,112z M288.04,24v24h-240V24c0-4.418,3.582-8,8-8
	h224C284.458,16,288.04,19.582,288.04,24z"/>
<g>
	
		<linearGradient id="SVGID_2_" gradientUnits="userSpaceOnUse" x1="-58.9481" y1="562.625" x2="4.4549" y2="562.625" gradientTransform="matrix(8 0 0 -8 454.7205 4941)">
		<stop  offset="0" style="stop-color:#00A2CC"/>
		<stop  offset="1" style="stop-color:#2B32B2"/>
	</linearGradient>
	<path style="fill:url(#SVGID_2_);" d="M72.04,448h16c4.418,0,8-3.582,8-8s-3.582-8-8-8h-16c-4.418,0-8,3.582-8,8
		S67.622,448,72.04,448z"/>
	
		<linearGradient id="SVGID_3_" gradientUnits="userSpaceOnUse" x1="-58.9481" y1="562.6221" x2="4.4549" y2="562.6221" gradientTransform="matrix(8 0 0 -8 454.7205 4941)">
		<stop  offset="0" style="stop-color:#00A2CC"/>
		<stop  offset="1" style="stop-color:#2B32B2"/>
	</linearGradient>
	<path style="fill:url(#SVGID_3_);" d="M162.36,445.68c3.111,3.137,8.177,3.158,11.314,0.047c1.526-1.513,2.379-3.577,2.366-5.727
		c0-4.418-3.582-8-8-8s-8,3.582-8,8c-0.028,1.049,0.192,2.091,0.64,3.04C161.088,444.008,161.656,444.901,162.36,445.68
		L162.36,445.68z"/>
	
		<linearGradient id="SVGID_4_" gradientUnits="userSpaceOnUse" x1="-58.9481" y1="562.625" x2="4.4549" y2="562.625" gradientTransform="matrix(8 0 0 -8 454.7205 4941)">
		<stop  offset="0" style="stop-color:#00A2CC"/>
		<stop  offset="1" style="stop-color:#2B32B2"/>
	</linearGradient>
	<path style="fill:url(#SVGID_4_);" d="M248.04,448h16c4.418,0,8-3.582,8-8s-3.582-8-8-8h-16c-4.418,0-8,3.582-8,8
		S243.622,448,248.04,448z"/>
	
		<linearGradient id="SVGID_5_" gradientUnits="userSpaceOnUse" x1="-58.9481" y1="612.6196" x2="4.4549" y2="612.6196" gradientTransform="matrix(8 0 0 -8 454.7205 4941)">
		<stop  offset="0" style="stop-color:#00A2CC"/>
		<stop  offset="1" style="stop-color:#2B32B2"/>
	</linearGradient>
	<path style="fill:url(#SVGID_5_);" d="M362.384,45.704L372.72,56l-10.328,10.304c-3.182,3.065-3.277,8.129-0.212,11.312
		c3.065,3.182,8.129,3.277,11.312,0.212c0.067-0.064,0.132-0.129,0.196-0.196l16-16c3.126-3.122,3.129-8.188,0.006-11.314
		c-0.002-0.002-0.004-0.004-0.006-0.006L379.352,40.04l10.352-10.36c3.123-3.124,3.123-8.188,0-11.312l-16-16
		c-3.124-3.128-8.192-3.132-11.32-0.008s-3.132,8.192-0.008,11.32l10.4,10.4l-10.4,10.4
		C359.313,37.596,359.317,42.593,362.384,45.704L362.384,45.704z"/>
	
		<linearGradient id="SVGID_6_" gradientUnits="userSpaceOnUse" x1="-58.9481" y1="612.6196" x2="4.4549" y2="612.6196" gradientTransform="matrix(8 0 0 -8 454.7205 4941)">
		<stop  offset="0" style="stop-color:#00A2CC"/>
		<stop  offset="1" style="stop-color:#2B32B2"/>
	</linearGradient>
	<path style="fill:url(#SVGID_6_);" d="M322.384,45.704L332.72,56l-10.328,10.304c-3.182,3.065-3.277,8.129-0.212,11.312
		c3.065,3.182,8.129,3.277,11.312,0.212c0.067-0.064,0.132-0.129,0.196-0.196l16-16c3.126-3.122,3.129-8.188,0.006-11.314
		c-0.002-0.002-0.004-0.004-0.006-0.006L339.352,40.04l10.352-10.36c3.123-3.124,3.123-8.188,0-11.312l-16-16
		c-3.124-3.128-8.192-3.132-11.32-0.008s-3.132,8.192-0.008,11.32l10.4,10.4l-10.4,10.4
		C319.313,37.596,319.317,42.593,322.384,45.704L322.384,45.704z"/>
	
		<linearGradient id="SVGID_7_" gradientUnits="userSpaceOnUse" x1="-58.9481" y1="567.1202" x2="4.4549" y2="567.1202" gradientTransform="matrix(8 0 0 -8 454.7205 4941)">
		<stop  offset="0" style="stop-color:#00A2CC"/>
		<stop  offset="1" style="stop-color:#2B32B2"/>
	</linearGradient>
	<path style="fill:url(#SVGID_7_);" d="M405.872,347.544l-16-17.024c-3.027-3.221-8.091-3.379-11.312-0.352
		c-3.221,3.026-3.379,8.091-0.352,11.312l10.856,11.544l-10.856,11.544c-2.896,3.08-2.896,7.88,0,10.96l10.84,11.512l-10.832,11.464
		c-0.283,0.384-0.535,0.791-0.752,1.216c-0.304,0.399-0.572,0.825-0.8,1.272c-0.176,0.519-0.294,1.055-0.352,1.6
		c-0.119,0.47-0.2,0.949-0.24,1.432c0.032,0.54,0.118,1.076,0.256,1.6c0.062,0.481,0.169,0.955,0.32,1.416
		c0.244,0.505,0.542,0.983,0.888,1.424c0.193,0.379,0.415,0.743,0.664,1.088l10.856,11.544L378.2,432.64
		c-2.896,3.08-2.896,7.88,0,10.96l10.84,11.512l-10.832,11.464c-3.035,3.217-2.889,8.285,0.328,11.32s8.285,2.889,11.32-0.328l0,0
		l16-16.96c2.906-3.082,2.906-7.894,0-10.976l-10.848-11.512l10.848-11.544c2.896-3.08,2.896-7.88,0-10.96L395.032,404l10.832-11.48
		c2.906-3.082,2.906-7.894,0-10.976l-10.848-11.512l10.848-11.544C408.752,355.413,408.755,350.624,405.872,347.544L405.872,347.544
		z"/>
	
		<linearGradient id="SVGID_8_" gradientUnits="userSpaceOnUse" x1="-58.9481" y1="567.1202" x2="4.4549" y2="567.1202" gradientTransform="matrix(8 0 0 -8 454.7205 4941)">
		<stop  offset="0" style="stop-color:#00A2CC"/>
		<stop  offset="1" style="stop-color:#2B32B2"/>
	</linearGradient>
	<path style="fill:url(#SVGID_8_);" d="M365.872,347.544l-16-17.024c-3.027-3.221-8.091-3.379-11.312-0.352
		c-3.221,3.026-3.379,8.091-0.352,11.312l10.856,11.544l-10.856,11.544c-2.896,3.08-2.896,7.88,0,10.96l10.84,11.512l-10.832,11.464
		c-0.283,0.384-0.535,0.791-0.752,1.216c-0.304,0.399-0.572,0.825-0.8,1.272c-0.176,0.519-0.294,1.055-0.352,1.6
		c-0.119,0.47-0.2,0.949-0.24,1.432c0.032,0.54,0.118,1.076,0.256,1.6c0.062,0.481,0.169,0.955,0.32,1.416
		c0.244,0.505,0.542,0.983,0.888,1.424c0.193,0.379,0.415,0.743,0.664,1.088l10.856,11.544L338.2,432.64
		c-2.896,3.08-2.896,7.88,0,10.96l10.84,11.512l-10.832,11.464c-3.035,3.217-2.889,8.285,0.328,11.32s8.285,2.889,11.32-0.328l0,0
		l16-16.96c2.906-3.082,2.906-7.894,0-10.976l-10.848-11.512l10.848-11.544c2.896-3.08,2.896-7.88,0-10.96L355.032,404l10.832-11.48
		c2.906-3.082,2.906-7.894,0-10.976l-10.848-11.512l10.848-11.544C368.752,355.413,368.755,350.624,365.872,347.544L365.872,347.544
		z"/>
	
		<linearGradient id="SVGID_9_" gradientUnits="userSpaceOnUse" x1="-58.9481" y1="593.625" x2="4.4549" y2="593.625" gradientTransform="matrix(8 0 0 -8 454.7205 4941)">
		<stop  offset="0" style="stop-color:#00A2CC"/>
		<stop  offset="1" style="stop-color:#2B32B2"/>
	</linearGradient>
	<path style="fill:url(#SVGID_9_);" d="M240.04,240c0,4.418,3.582,8,8,8h144c4.418,0,8-3.582,8-8v-96
		c-0.026-0.167-0.061-0.333-0.104-0.496c-0.004-0.616-0.085-1.228-0.24-1.824c-0.048-0.16-0.152-0.28-0.208-0.432
		c-0.134-0.322-0.289-0.635-0.464-0.936c-0.277-0.543-0.618-1.051-1.016-1.512c-0.226-0.259-0.466-0.505-0.72-0.736
		c-0.489-0.415-1.026-0.77-1.6-1.056c-0.257-0.162-0.524-0.306-0.8-0.432c-0.906-0.366-1.871-0.561-2.848-0.576h-144
		c-0.977,0.015-1.942,0.21-2.848,0.576c-0.276,0.126-0.543,0.27-0.8,0.432c-0.574,0.286-1.111,0.641-1.6,1.056
		c-0.254,0.231-0.494,0.477-0.72,0.736c-0.599,0.748-1.096,1.571-1.48,2.448c-0.056,0.152-0.16,0.272-0.208,0.432
		c-0.155,0.596-0.236,1.208-0.24,1.824c0,0.176-0.104,0.32-0.104,0.496L240.04,240z M365.64,152l-45.6,30.4l-45.6-30.4H365.64z
		 M256.04,158.944l59.56,39.712c2.688,1.794,6.192,1.794,8.88,0l59.56-39.712V232h-128V158.944z"/>
	
		<linearGradient id="SVGID_10_" gradientUnits="userSpaceOnUse" x1="-58.9481" y1="603.125" x2="4.4549" y2="603.125" gradientTransform="matrix(8 0 0 -8 454.7205 4941)">
		<stop  offset="0" style="stop-color:#00A2CC"/>
		<stop  offset="1" style="stop-color:#2B32B2"/>
	</linearGradient>
	<path style="fill:url(#SVGID_10_);" d="M104.04,80h-32c-4.418,0-8,3.582-8,8v56c0,4.418,3.582,8,8,8s8-3.582,8-8V96h24
		c4.418,0,8-3.582,8-8S108.458,80,104.04,80z"/>
	
		<linearGradient id="SVGID_11_" gradientUnits="userSpaceOnUse" x1="-58.9481" y1="606.625" x2="4.4549" y2="606.625" gradientTransform="matrix(8 0 0 -8 454.7205 4941)">
		<stop  offset="0" style="stop-color:#00A2CC"/>
		<stop  offset="1" style="stop-color:#2B32B2"/>
	</linearGradient>
	<path style="fill:url(#SVGID_11_);" d="M152.04,80h-16c-4.418,0-8,3.582-8,8s3.582,8,8,8h16c4.418,0,8-3.582,8-8
		S156.458,80,152.04,80z"/>
</g>
<g>
</g>
<g>
</g>
<g>
</g>
<g>
</g>
<g>
</g>
<g>
</g>
<g>
</g>
<g>
</g>
<g>
</g>
<g>
</g>
<g>
</g>
<g>
</g>
<g>
</g>
<g>
</g>
<g>
</g>
</svg>
