<?xml version="1.0" encoding="iso-8859-1"?>
<!-- Generator: Adobe Illustrator 19.0.0, SVG Export Plug-In . SVG Version: 6.00 Build 0)  -->
<svg version="1.1" id="Capa_1" xmlns="http://www.w3.org/2000/svg" xmlns:xlink="http://www.w3.org/1999/xlink" x="0px" y="0px"
	 viewBox="0 0 480 480" style="enable-background:new 0 0 480 480;" xml:space="preserve">
<linearGradient id="SVGID_1_" gradientUnits="userSpaceOnUse" x1="-59.097" y1="600.1168" x2="5.625" y2="600.1168" gradientTransform="matrix(8 0 0 -8 455 4941)">
	<stop  offset="0" style="stop-color:#00A2CC"/>
	<stop  offset="1" style="stop-color:#2B32B2"/>
</linearGradient>
<path style="fill:url(#SVGID_1_);" d="M283.144,136.616c-27.605-11.416-58.611-11.416-86.216,0
	c-4.12,1.595-6.167,6.229-4.571,10.349c1.596,4.12,6.229,6.167,10.349,4.571c0.123-0.048,0.245-0.099,0.366-0.152
	c23.668-9.776,50.244-9.776,73.912,0c0.975,0.41,2.022,0.619,3.08,0.616c4.418,0.001,8.001-3.58,8.002-7.998
	C288.066,140.772,286.125,137.859,283.144,136.616L283.144,136.616z"/>
<g>
	
		<linearGradient id="SVGID_2_" gradientUnits="userSpaceOnUse" x1="-59.097" y1="587.619" x2="5.625" y2="587.619" gradientTransform="matrix(8 0 0 -8 455 4941)">
		<stop  offset="0" style="stop-color:#00A2CC"/>
		<stop  offset="1" style="stop-color:#2B32B2"/>
	</linearGradient>
	<path style="fill:url(#SVGID_2_);" d="M307.88,319.2c3.124,3.123,8.188,3.123,11.312,0c43.691-43.762,43.691-114.638,0-158.4
		c-3.178-3.07-8.242-2.982-11.312,0.196c-2.994,3.1-2.994,8.015,0,11.116c37.43,37.514,37.43,98.246,0,135.76
		c-3.128,3.12-3.135,8.186-0.014,11.314C307.87,319.19,307.875,319.195,307.88,319.2z"/>
	
		<linearGradient id="SVGID_3_" gradientUnits="userSpaceOnUse" x1="-59.097" y1="587.625" x2="5.625" y2="587.625" gradientTransform="matrix(8 0 0 -8 455 4941)">
		<stop  offset="0" style="stop-color:#00A2CC"/>
		<stop  offset="1" style="stop-color:#2B32B2"/>
	</linearGradient>
	<path style="fill:url(#SVGID_3_);" d="M398.4,70.296l-45.248,45.248c-3.123,3.124-3.123,8.188,0,11.312
		c62.37,62.537,62.37,163.751,0,226.288c-3.123,3.124-3.123,8.188,0,11.312l45.248,45.248c3.124,3.123,8.188,3.123,11.312,0
		c93.578-93.786,93.578-245.622,0-339.408C406.588,67.173,401.524,67.173,398.4,70.296L398.4,70.296z M403.952,392.632l-33.96-33.96
		c61.234-67.266,61.234-170.078,0-237.344l33.96-33.96c79.925,86.061,79.921,219.207-0.008,305.264L403.952,392.632z"/>
	
		<linearGradient id="SVGID_4_" gradientUnits="userSpaceOnUse" x1="-59.097" y1="587.631" x2="5.625" y2="587.631" gradientTransform="matrix(8 0 0 -8 455 4941)">
		<stop  offset="0" style="stop-color:#00A2CC"/>
		<stop  offset="1" style="stop-color:#2B32B2"/>
	</linearGradient>
	<path style="fill:url(#SVGID_4_);" d="M172.12,160.8c-3.124-3.123-8.188-3.123-11.312,0c-43.691,43.762-43.691,114.638,0,158.4
		c3.178,3.069,8.243,2.982,11.312-0.196c2.994-3.1,2.994-8.015,0-11.116c-37.43-37.514-37.43-98.246,0-135.76
		c3.128-3.12,3.135-8.186,0.014-11.314C172.13,160.81,172.125,160.805,172.12,160.8z"/>
	
		<linearGradient id="SVGID_5_" gradientUnits="userSpaceOnUse" x1="-59.097" y1="587.625" x2="5.625" y2="587.625" gradientTransform="matrix(8 0 0 -8 455 4941)">
		<stop  offset="0" style="stop-color:#00A2CC"/>
		<stop  offset="1" style="stop-color:#2B32B2"/>
	</linearGradient>
	<path style="fill:url(#SVGID_5_);" d="M126.856,126.856c3.123-3.124,3.123-8.188,0-11.312L81.6,70.296
		c-3.124-3.123-8.188-3.123-11.312,0c-93.578,93.786-93.578,245.622,0,339.408c3.124,3.123,8.188,3.123,11.312,0l45.248-45.248
		c3.123-3.124,3.123-8.188,0-11.312C64.481,290.605,64.484,189.39,126.856,126.856L126.856,126.856z M76.056,392.632
		c-79.927-86.059-79.927-219.205,0-305.264l33.96,33.96c-61.234,67.266-61.234,170.078,0,237.344L76.056,392.632z"/>
</g>
<g>
	
		<linearGradient id="SVGID_6_" gradientUnits="userSpaceOnUse" x1="-59.097" y1="575.6381" x2="5.625" y2="575.6381" gradientTransform="matrix(8 0 0 -8 455 4941)">
		<stop  offset="0" style="stop-color:#00A2CC"/>
		<stop  offset="1" style="stop-color:#2B32B2"/>
	</linearGradient>
	<path style="fill:url(#SVGID_6_);" d="M240,480c4.418,0,8-3.582,8-8V351.568c12.081-0.803,23.951-3.567,35.144-8.184
		c4.078-1.701,6.005-6.386,4.304-10.464c-1.701-4.078-6.386-6.005-10.464-4.304c-9.24,3.814-19.019,6.16-28.984,6.952v-48.28
		c26.184-4.418,43.828-29.226,39.41-55.41c-4.418-26.184-29.226-43.828-55.41-39.41c-26.184,4.418-43.828,29.226-39.41,55.41
		c3.406,20.187,19.223,36.003,39.41,39.41v48.28c-9.944-0.785-19.705-3.12-28.928-6.92c-4.12-1.595-8.754,0.451-10.349,4.571
		c-1.54,3.976,0.31,8.462,4.205,10.197c11.173,4.596,23.017,7.352,35.072,8.16V472C232,476.418,235.582,480,240,480z
		 M217.376,262.624c-12.499-12.495-12.502-32.756-0.007-45.255c12.495-12.499,32.756-12.502,45.255-0.007
		c12.499,12.495,12.502,32.756,0.007,45.255c-0.002,0.002-0.005,0.005-0.007,0.007C249.967,274.721,230.033,274.721,217.376,262.624
		L217.376,262.624z"/>
	
		<linearGradient id="SVGID_7_" gradientUnits="userSpaceOnUse" x1="-59.097" y1="565.625" x2="5.625" y2="565.625" gradientTransform="matrix(8 0 0 -8 455 4941)">
		<stop  offset="0" style="stop-color:#00A2CC"/>
		<stop  offset="1" style="stop-color:#2B32B2"/>
	</linearGradient>
	<path style="fill:url(#SVGID_7_);" d="M160,440c0,4.418,3.582,8,8,8s8-3.582,8-8v-16h16c4.418,0,8-3.582,8-8s-3.582-8-8-8h-16v-16
		c0-4.418-3.582-8-8-8s-8,3.582-8,8v16h-16c-4.418,0-8,3.582-8,8s3.582,8,8,8h16V440z"/>
	
		<linearGradient id="SVGID_8_" gradientUnits="userSpaceOnUse" x1="-59.097" y1="564.625" x2="5.625" y2="564.625" gradientTransform="matrix(8 0 0 -8 455 4941)">
		<stop  offset="0" style="stop-color:#00A2CC"/>
		<stop  offset="1" style="stop-color:#2B32B2"/>
	</linearGradient>
	<path style="fill:url(#SVGID_8_);" d="M336,416h16v16h-16V416z"/>
	
		<linearGradient id="SVGID_9_" gradientUnits="userSpaceOnUse" x1="-59.097" y1="560.625" x2="5.625" y2="560.625" gradientTransform="matrix(8 0 0 -8 455 4941)">
		<stop  offset="0" style="stop-color:#00A2CC"/>
		<stop  offset="1" style="stop-color:#2B32B2"/>
	</linearGradient>
	<path style="fill:url(#SVGID_9_);" d="M336,448h16v16h-16V448z"/>
	
		<linearGradient id="SVGID_10_" gradientUnits="userSpaceOnUse" x1="-59.097" y1="562.625" x2="5.625" y2="562.625" gradientTransform="matrix(8 0 0 -8 455 4941)">
		<stop  offset="0" style="stop-color:#00A2CC"/>
		<stop  offset="1" style="stop-color:#2B32B2"/>
	</linearGradient>
	<path style="fill:url(#SVGID_10_);" d="M320,432h16v16h-16V432z"/>
	
		<linearGradient id="SVGID_11_" gradientUnits="userSpaceOnUse" x1="-59.097" y1="562.625" x2="5.625" y2="562.625" gradientTransform="matrix(8 0 0 -8 455 4941)">
		<stop  offset="0" style="stop-color:#00A2CC"/>
		<stop  offset="1" style="stop-color:#2B32B2"/>
	</linearGradient>
	<path style="fill:url(#SVGID_11_);" d="M352,432h16v16h-16V432z"/>
	
		<linearGradient id="SVGID_12_" gradientUnits="userSpaceOnUse" x1="-59.097" y1="609.625" x2="5.625" y2="609.625" gradientTransform="matrix(8 0 0 -8 455 4941)">
		<stop  offset="0" style="stop-color:#00A2CC"/>
		<stop  offset="1" style="stop-color:#2B32B2"/>
	</linearGradient>
	<path style="fill:url(#SVGID_12_);" d="M176,56h16v16h-16V56z"/>
	
		<linearGradient id="SVGID_13_" gradientUnits="userSpaceOnUse" x1="-59.097" y1="605.625" x2="5.625" y2="605.625" gradientTransform="matrix(8 0 0 -8 455 4941)">
		<stop  offset="0" style="stop-color:#00A2CC"/>
		<stop  offset="1" style="stop-color:#2B32B2"/>
	</linearGradient>
	<path style="fill:url(#SVGID_13_);" d="M176,88h16v16h-16V88z"/>
	
		<linearGradient id="SVGID_14_" gradientUnits="userSpaceOnUse" x1="-59.097" y1="607.625" x2="5.625" y2="607.625" gradientTransform="matrix(8 0 0 -8 455 4941)">
		<stop  offset="0" style="stop-color:#00A2CC"/>
		<stop  offset="1" style="stop-color:#2B32B2"/>
	</linearGradient>
	<path style="fill:url(#SVGID_14_);" d="M160,72h16v16h-16V72z"/>
	
		<linearGradient id="SVGID_15_" gradientUnits="userSpaceOnUse" x1="-59.097" y1="607.625" x2="5.625" y2="607.625" gradientTransform="matrix(8 0 0 -8 455 4941)">
		<stop  offset="0" style="stop-color:#00A2CC"/>
		<stop  offset="1" style="stop-color:#2B32B2"/>
	</linearGradient>
	<path style="fill:url(#SVGID_15_);" d="M192,72h16v16h-16V72z"/>
	
		<linearGradient id="SVGID_16_" gradientUnits="userSpaceOnUse" x1="-59.097" y1="616.625" x2="5.625" y2="616.625" gradientTransform="matrix(8 0 0 -8 455 4941)">
		<stop  offset="0" style="stop-color:#00A2CC"/>
		<stop  offset="1" style="stop-color:#2B32B2"/>
	</linearGradient>
	<path style="fill:url(#SVGID_16_);" d="M256,0h16v16h-16V0z"/>
	
		<linearGradient id="SVGID_17_" gradientUnits="userSpaceOnUse" x1="-59.097" y1="612.625" x2="5.625" y2="612.625" gradientTransform="matrix(8 0 0 -8 455 4941)">
		<stop  offset="0" style="stop-color:#00A2CC"/>
		<stop  offset="1" style="stop-color:#2B32B2"/>
	</linearGradient>
	<path style="fill:url(#SVGID_17_);" d="M256,32h16v16h-16V32z"/>
	
		<linearGradient id="SVGID_18_" gradientUnits="userSpaceOnUse" x1="-59.097" y1="614.625" x2="5.625" y2="614.625" gradientTransform="matrix(8 0 0 -8 455 4941)">
		<stop  offset="0" style="stop-color:#00A2CC"/>
		<stop  offset="1" style="stop-color:#2B32B2"/>
	</linearGradient>
	<path style="fill:url(#SVGID_18_);" d="M240,16h16v16h-16V16z"/>
	
		<linearGradient id="SVGID_19_" gradientUnits="userSpaceOnUse" x1="-59.097" y1="614.625" x2="5.625" y2="614.625" gradientTransform="matrix(8 0 0 -8 455 4941)">
		<stop  offset="0" style="stop-color:#00A2CC"/>
		<stop  offset="1" style="stop-color:#2B32B2"/>
	</linearGradient>
	<path style="fill:url(#SVGID_19_);" d="M272,16h16v16h-16V16z"/>
</g>
<g>
</g>
<g>
</g>
<g>
</g>
<g>
</g>
<g>
</g>
<g>
</g>
<g>
</g>
<g>
</g>
<g>
</g>
<g>
</g>
<g>
</g>
<g>
</g>
<g>
</g>
<g>
</g>
<g>
</g>
</svg>
