<?xml version="1.0" encoding="iso-8859-1"?>
<!-- Generator: Adobe Illustrator 19.0.0, SVG Export Plug-In . SVG Version: 6.00 Build 0)  -->
<svg version="1.1" id="Capa_1" xmlns="http://www.w3.org/2000/svg" xmlns:xlink="http://www.w3.org/1999/xlink" x="0px" y="0px"
	 viewBox="0 0 512 512" style="enable-background:new 0 0 512 512;" xml:space="preserve">
<g>
	
		<linearGradient id="SVGID_1_" gradientUnits="userSpaceOnUse" x1="-43.4248" y1="611.2109" x2="16.6592" y2="611.2109" gradientTransform="matrix(8.5333 0 0 -8.5333 369.1334 5433.2671)">
		<stop  offset="0" style="stop-color:#00A2CC"/>
		<stop  offset="1" style="stop-color:#2B32B2"/>
	</linearGradient>
	<path style="fill:url(#SVGID_1_);" d="M503.467,384h-59.733V256c0-4.71-3.823-8.533-8.533-8.533h-25.6v-128
		c0-4.71-3.823-8.533-8.533-8.533H290.133v-25.6c0-4.71-3.823-8.533-8.533-8.533H145.067c-4.71,0-8.533,3.823-8.533,8.533v110.933
		h-17.067V72.533c0-21.205-17.195-38.4-38.4-38.4s-38.4,17.195-38.4,38.4V102.4c0,4.71,3.823,8.533,8.533,8.533
		s8.533-3.823,8.533-8.533V72.533c0-11.785,9.549-21.333,21.333-21.333S102.4,60.749,102.4,72.533v123.733H25.6
		c-4.71,0-8.533,3.823-8.533,8.533c0,4.71,3.823,8.533,8.533,8.533h76.8V384h-8.533c-4.71,0-8.533,3.823-8.533,8.533
		s3.823,8.533,8.533,8.533h409.6c4.71,0,8.533-3.823,8.533-8.533S508.177,384,503.467,384z M136.533,384h-17.067V213.333h17.067V384
		z M196.267,93.867H230.4V153.6h-34.133V93.867z M273.067,119.467V384H153.6V213.333h17.067c4.71,0,8.533-3.823,8.533-8.533
		c0-4.71-3.823-8.533-8.533-8.533H153.6v-102.4h25.6v68.267c0,4.71,3.823,8.533,8.533,8.533h51.2c4.71,0,8.533-3.823,8.533-8.533
		V93.867h25.6V119.467z M332.8,128h17.067v34.133H332.8V128z M290.133,128h25.6v42.667c0,4.71,3.823,8.533,8.533,8.533H358.4
		c4.71,0,8.533-3.823,8.533-8.533V128h25.6v119.467h-102.4V128z M375.467,264.533v34.133h-34.133v-34.133H375.467z M426.667,384
		H290.133V264.533h34.133V307.2c0,4.71,3.823,8.533,8.533,8.533H384c4.71,0,8.533-3.823,8.533-8.533v-42.667h34.133V384z"/>
	
		<linearGradient id="SVGID_2_" gradientUnits="userSpaceOnUse" x1="-43.4248" y1="584.7109" x2="16.6592" y2="584.7109" gradientTransform="matrix(8.5333 0 0 -8.5333 369.1334 5433.2671)">
		<stop  offset="0" style="stop-color:#00A2CC"/>
		<stop  offset="1" style="stop-color:#2B32B2"/>
	</linearGradient>
	<path style="fill:url(#SVGID_2_);" d="M145.067,409.6c-18.85,0-34.133,15.283-34.133,34.133s15.283,34.133,34.133,34.133
		s34.133-15.283,34.133-34.133S163.917,409.6,145.067,409.6z M145.067,460.8c-9.429,0-17.067-7.637-17.067-17.067
		c0-9.429,7.637-17.067,17.067-17.067c9.429,0,17.067,7.637,17.067,17.067C162.133,453.163,154.496,460.8,145.067,460.8z"/>
	
		<linearGradient id="SVGID_3_" gradientUnits="userSpaceOnUse" x1="-43.4248" y1="584.7109" x2="16.6592" y2="584.7109" gradientTransform="matrix(8.5333 0 0 -8.5333 369.1334 5433.2671)">
		<stop  offset="0" style="stop-color:#00A2CC"/>
		<stop  offset="1" style="stop-color:#2B32B2"/>
	</linearGradient>
	<path style="fill:url(#SVGID_3_);" d="M452.267,409.6c-18.85,0-34.133,15.283-34.133,34.133s15.283,34.133,34.133,34.133
		s34.133-15.283,34.133-34.133S471.117,409.6,452.267,409.6z M452.267,460.8c-9.429,0-17.067-7.637-17.067-17.067
		c0-9.429,7.637-17.067,17.067-17.067s17.067,7.637,17.067,17.067C469.333,453.163,461.696,460.8,452.267,460.8z"/>
	
		<linearGradient id="SVGID_4_" gradientUnits="userSpaceOnUse" x1="-43.4248" y1="616.7109" x2="16.6592" y2="616.7109" gradientTransform="matrix(8.5333 0 0 -8.5333 369.1334 5433.2671)">
		<stop  offset="0" style="stop-color:#00A2CC"/>
		<stop  offset="1" style="stop-color:#2B32B2"/>
	</linearGradient>
	<path style="fill:url(#SVGID_4_);" d="M76.8,170.667c0-4.71-3.823-8.533-8.533-8.533H8.533c-4.71,0-8.533,3.823-8.533,8.533
		s3.823,8.533,8.533,8.533h59.733C72.977,179.2,76.8,175.377,76.8,170.667z"/>
</g>
<g>
</g>
<g>
</g>
<g>
</g>
<g>
</g>
<g>
</g>
<g>
</g>
<g>
</g>
<g>
</g>
<g>
</g>
<g>
</g>
<g>
</g>
<g>
</g>
<g>
</g>
<g>
</g>
<g>
</g>
</svg>
