<?xml version="1.0" encoding="iso-8859-1"?>
<!-- Generator: Adobe Illustrator 19.0.0, SVG Export Plug-In . SVG Version: 6.00 Build 0)  -->
<svg version="1.1" id="Capa_1" xmlns="http://www.w3.org/2000/svg" xmlns:xlink="http://www.w3.org/1999/xlink" x="0px" y="0px"
	 viewBox="0 0 512 512" style="enable-background:new 0 0 512 512;" xml:space="preserve">
<g>
	
		<linearGradient id="SVGID_1_" gradientUnits="userSpaceOnUse" x1="-43.0908" y1="606.7109" x2="17.3222" y2="606.7109" gradientTransform="matrix(8.5333 0 0 -8.5333 369.1334 5433.2671)">
		<stop  offset="0" style="stop-color:#00A2CC"/>
		<stop  offset="1" style="stop-color:#2B32B2"/>
	</linearGradient>
	<path style="fill:url(#SVGID_1_);" d="M503.467,375.467h-34.133V179.2c-0.026-23.552-19.115-42.641-42.667-42.667h-59.733V102.4
		H435.2c4.71,0,8.533-3.823,8.533-8.533V8.533c0-4.71-3.823-8.533-8.533-8.533H221.867c-4.71,0-8.533,3.823-8.533,8.533v85.333
		c0,4.71,3.823,8.533,8.533,8.533h76.8v34.133h-102.4v-76.8c0-4.71-3.823-8.533-8.533-8.533H102.4c-4.71,0-8.533,3.823-8.533,8.533
		v76.8h-8.533c-23.552,0.026-42.641,19.115-42.667,42.667v196.267H8.533C3.823,375.467,0,379.29,0,384v119.467
		C0,508.177,3.823,512,8.533,512h494.933c4.71,0,8.533-3.823,8.533-8.533V384C512,379.29,508.177,375.467,503.467,375.467z
		 M230.4,85.333V17.067h196.267v68.267H230.4z M349.867,102.4v34.133h-34.133V102.4H349.867z M110.933,68.267H179.2V256h-68.267
		V68.267z M59.733,179.2c0-14.14,11.46-25.6,25.6-25.6h8.533V256H76.8v17.067h136.533V256h-17.067V153.6h230.4
		c14.14,0,25.6,11.46,25.6,25.6v196.267H59.733V179.2z M494.933,494.933H17.067v-102.4h477.867V494.933z"/>
	
		<linearGradient id="SVGID_2_" gradientUnits="userSpaceOnUse" x1="-43.0908" y1="584.7109" x2="17.3222" y2="584.7109" gradientTransform="matrix(8.5333 0 0 -8.5333 369.1334 5433.2671)">
		<stop  offset="0" style="stop-color:#00A2CC"/>
		<stop  offset="1" style="stop-color:#2B32B2"/>
	</linearGradient>
	<path style="fill:url(#SVGID_2_);" d="M256,477.867c18.85,0,34.133-15.283,34.133-34.133S274.85,409.6,256,409.6
		c-18.85,0-34.133,15.283-34.133,34.133S237.15,477.867,256,477.867z M256,426.667c9.429,0,17.067,7.637,17.067,17.067
		c0,9.429-7.637,17.067-17.067,17.067c-9.429,0-17.067-7.637-17.067-17.067C238.933,434.304,246.571,426.667,256,426.667z"/>
	
		<linearGradient id="SVGID_3_" gradientUnits="userSpaceOnUse" x1="-43.0908" y1="610.7109" x2="17.3222" y2="610.7109" gradientTransform="matrix(8.5333 0 0 -8.5333 369.1334 5433.2671)">
		<stop  offset="0" style="stop-color:#00A2CC"/>
		<stop  offset="1" style="stop-color:#2B32B2"/>
	</linearGradient>
	<path style="fill:url(#SVGID_3_);" d="M409.6,187.733h-51.2c-4.71,0-8.533,3.823-8.533,8.533v51.2c0,4.71,3.823,8.533,8.533,8.533
		h51.2c4.71,0,8.533-3.823,8.533-8.533v-51.2C418.133,191.556,414.31,187.733,409.6,187.733z M401.067,238.933h-34.133V204.8h34.133
		V238.933z"/>
	
		<linearGradient id="SVGID_4_" gradientUnits="userSpaceOnUse" x1="-43.0908" y1="610.7109" x2="17.3222" y2="610.7109" gradientTransform="matrix(8.5333 0 0 -8.5333 369.1334 5433.2671)">
		<stop  offset="0" style="stop-color:#00A2CC"/>
		<stop  offset="1" style="stop-color:#2B32B2"/>
	</linearGradient>
	<path style="fill:url(#SVGID_4_);" d="M324.267,187.733h-51.2c-4.71,0-8.533,3.823-8.533,8.533v51.2
		c0,4.71,3.823,8.533,8.533,8.533h51.2c4.71,0,8.533-3.823,8.533-8.533v-51.2C332.8,191.556,328.977,187.733,324.267,187.733z
		 M315.733,238.933H281.6V204.8h34.133V238.933z"/>
	
		<linearGradient id="SVGID_5_" gradientUnits="userSpaceOnUse" x1="-43.0908" y1="600.7109" x2="17.3222" y2="600.7109" gradientTransform="matrix(8.5333 0 0 -8.5333 369.1334 5433.2671)">
		<stop  offset="0" style="stop-color:#00A2CC"/>
		<stop  offset="1" style="stop-color:#2B32B2"/>
	</linearGradient>
	<path style="fill:url(#SVGID_5_);" d="M409.6,273.067h-51.2c-4.71,0-8.533,3.823-8.533,8.533v51.2c0,4.71,3.823,8.533,8.533,8.533
		h51.2c4.71,0,8.533-3.823,8.533-8.533v-51.2C418.133,276.89,414.31,273.067,409.6,273.067z M401.067,324.267h-34.133v-34.133
		h34.133V324.267z"/>
	
		<linearGradient id="SVGID_6_" gradientUnits="userSpaceOnUse" x1="-43.0908" y1="600.7109" x2="17.3222" y2="600.7109" gradientTransform="matrix(8.5333 0 0 -8.5333 369.1334 5433.2671)">
		<stop  offset="0" style="stop-color:#00A2CC"/>
		<stop  offset="1" style="stop-color:#2B32B2"/>
	</linearGradient>
	<path style="fill:url(#SVGID_6_);" d="M324.267,273.067h-51.2c-4.71,0-8.533,3.823-8.533,8.533v51.2
		c0,4.71,3.823,8.533,8.533,8.533h51.2c4.71,0,8.533-3.823,8.533-8.533v-51.2C332.8,276.89,328.977,273.067,324.267,273.067z
		 M315.733,324.267H281.6v-34.133h34.133V324.267z"/>
	
		<linearGradient id="SVGID_7_" gradientUnits="userSpaceOnUse" x1="-43.0908" y1="630.7109" x2="17.3222" y2="630.7109" gradientTransform="matrix(8.5333 0 0 -8.5333 369.1334 5433.2671)">
		<stop  offset="0" style="stop-color:#00A2CC"/>
		<stop  offset="1" style="stop-color:#2B32B2"/>
	</linearGradient>
	<rect x="401.067" y="34.133" style="fill:url(#SVGID_7_);" width="17.067" height="34.133"/>
	
		<linearGradient id="SVGID_8_" gradientUnits="userSpaceOnUse" x1="-43.0908" y1="601.7109" x2="17.3222" y2="601.7109" gradientTransform="matrix(8.5333 0 0 -8.5333 369.1334 5433.2671)">
		<stop  offset="0" style="stop-color:#00A2CC"/>
		<stop  offset="1" style="stop-color:#2B32B2"/>
	</linearGradient>
	<rect x="93.867" y="290.133" style="fill:url(#SVGID_8_);" width="34.133" height="17.067"/>
	
		<linearGradient id="SVGID_9_" gradientUnits="userSpaceOnUse" x1="-43.0908" y1="601.7109" x2="17.3222" y2="601.7109" gradientTransform="matrix(8.5333 0 0 -8.5333 369.1334 5433.2671)">
		<stop  offset="0" style="stop-color:#00A2CC"/>
		<stop  offset="1" style="stop-color:#2B32B2"/>
	</linearGradient>
	<rect x="162.133" y="290.133" style="fill:url(#SVGID_9_);" width="34.133" height="17.067"/>
	
		<linearGradient id="SVGID_10_" gradientUnits="userSpaceOnUse" x1="-43.0908" y1="597.7109" x2="17.3222" y2="597.7109" gradientTransform="matrix(8.5333 0 0 -8.5333 369.1334 5433.2671)">
		<stop  offset="0" style="stop-color:#00A2CC"/>
		<stop  offset="1" style="stop-color:#2B32B2"/>
	</linearGradient>
	<rect x="93.867" y="324.267" style="fill:url(#SVGID_10_);" width="34.133" height="17.067"/>
	
		<linearGradient id="SVGID_11_" gradientUnits="userSpaceOnUse" x1="-43.0908" y1="597.7109" x2="17.3222" y2="597.7109" gradientTransform="matrix(8.5333 0 0 -8.5333 369.1334 5433.2671)">
		<stop  offset="0" style="stop-color:#00A2CC"/>
		<stop  offset="1" style="stop-color:#2B32B2"/>
	</linearGradient>
	<rect x="162.133" y="324.267" style="fill:url(#SVGID_11_);" width="34.133" height="17.067"/>
</g>
<g>
</g>
<g>
</g>
<g>
</g>
<g>
</g>
<g>
</g>
<g>
</g>
<g>
</g>
<g>
</g>
<g>
</g>
<g>
</g>
<g>
</g>
<g>
</g>
<g>
</g>
<g>
</g>
<g>
</g>
</svg>
