<?xml version="1.0" encoding="iso-8859-1"?>
<!-- Generator: Adobe Illustrator 19.0.0, SVG Export Plug-In . SVG Version: 6.00 Build 0)  -->
<svg version="1.1" id="Capa_1" xmlns="http://www.w3.org/2000/svg" xmlns:xlink="http://www.w3.org/1999/xlink" x="0px" y="0px"
	 viewBox="0 0 480.009 480.009" style="enable-background:new 0 0 480.009 480.009;" xml:space="preserve">
<g>
	
		<linearGradient id="SVGID_1_" gradientUnits="userSpaceOnUse" x1="-59.3677" y1="595.6297" x2="5.2343" y2="595.6297" gradientTransform="matrix(8 0 0 -8 454.935 4941.042)">
		<stop  offset="0" style="stop-color:#00A2CC"/>
		<stop  offset="1" style="stop-color:#2B32B2"/>
	</linearGradient>
	<path style="fill:url(#SVGID_1_);" d="M88.009,168.005h16v16h-16V168.005z"/>
	
		<linearGradient id="SVGID_2_" gradientUnits="userSpaceOnUse" x1="-59.3677" y1="595.6297" x2="5.2343" y2="595.6297" gradientTransform="matrix(8 0 0 -8 454.935 4941.042)">
		<stop  offset="0" style="stop-color:#00A2CC"/>
		<stop  offset="1" style="stop-color:#2B32B2"/>
	</linearGradient>
	<path style="fill:url(#SVGID_2_);" d="M40.009,168.005h16v16h-16V168.005z"/>
</g>
<g>
	
		<linearGradient id="SVGID_3_" gradientUnits="userSpaceOnUse" x1="-59.3677" y1="608.6297" x2="5.2343" y2="608.6297" gradientTransform="matrix(8 0 0 -8 454.935 4941.042)">
		<stop  offset="0" style="stop-color:#00A2CC"/>
		<stop  offset="1" style="stop-color:#2B32B2"/>
	</linearGradient>
	<path style="fill:url(#SVGID_3_);" d="M192.009,64.005h16v16h-16V64.005z"/>
	
		<linearGradient id="SVGID_4_" gradientUnits="userSpaceOnUse" x1="-59.3677" y1="608.6297" x2="5.2343" y2="608.6297" gradientTransform="matrix(8 0 0 -8 454.935 4941.042)">
		<stop  offset="0" style="stop-color:#00A2CC"/>
		<stop  offset="1" style="stop-color:#2B32B2"/>
	</linearGradient>
	<path style="fill:url(#SVGID_4_);" d="M224.009,64.005h16v16h-16V64.005z"/>
	
		<linearGradient id="SVGID_5_" gradientUnits="userSpaceOnUse" x1="-59.3677" y1="608.6297" x2="5.2343" y2="608.6297" gradientTransform="matrix(8 0 0 -8 454.935 4941.042)">
		<stop  offset="0" style="stop-color:#00A2CC"/>
		<stop  offset="1" style="stop-color:#2B32B2"/>
	</linearGradient>
	<path style="fill:url(#SVGID_5_);" d="M256.009,64.005h16v16h-16V64.005z"/>
</g>
<g>
	
		<linearGradient id="SVGID_6_" gradientUnits="userSpaceOnUse" x1="-59.3677" y1="566.6297" x2="5.2343" y2="566.6297" gradientTransform="matrix(8 0 0 -8 454.935 4941.042)">
		<stop  offset="0" style="stop-color:#00A2CC"/>
		<stop  offset="1" style="stop-color:#2B32B2"/>
	</linearGradient>
	<path style="fill:url(#SVGID_6_);" d="M208.009,400.005h16v16h-16V400.005z"/>
	
		<linearGradient id="SVGID_7_" gradientUnits="userSpaceOnUse" x1="-59.3677" y1="566.6297" x2="5.2343" y2="566.6297" gradientTransform="matrix(8 0 0 -8 454.935 4941.042)">
		<stop  offset="0" style="stop-color:#00A2CC"/>
		<stop  offset="1" style="stop-color:#2B32B2"/>
	</linearGradient>
	<path style="fill:url(#SVGID_7_);" d="M240.009,400.005h16v16h-16V400.005z"/>
	
		<linearGradient id="SVGID_8_" gradientUnits="userSpaceOnUse" x1="-59.3677" y1="566.6297" x2="5.2343" y2="566.6297" gradientTransform="matrix(8 0 0 -8 454.935 4941.042)">
		<stop  offset="0" style="stop-color:#00A2CC"/>
		<stop  offset="1" style="stop-color:#2B32B2"/>
	</linearGradient>
	<path style="fill:url(#SVGID_8_);" d="M272.009,400.005h16v16h-16V400.005z"/>
	
		<linearGradient id="SVGID_9_" gradientUnits="userSpaceOnUse" x1="-59.3677" y1="605.6293" x2="5.2343" y2="605.6293" gradientTransform="matrix(8 0 0 -8 454.935 4941.042)">
		<stop  offset="0" style="stop-color:#00A2CC"/>
		<stop  offset="1" style="stop-color:#2B32B2"/>
	</linearGradient>
	<path style="fill:url(#SVGID_9_);" d="M176.009,128.005h3.056l-18.216,36.424c-1.978,3.951-0.379,8.757,3.572,10.735
		c2.572,1.288,5.637,1.096,8.028-0.503l69.96-46.656h69.6c4.418,0,8-3.582,8-8v-96c0-4.418-3.582-8-8-8h-144c-4.418,0-8,3.582-8,8
		v88C160.009,120.841,167.173,128.005,176.009,128.005z M176.009,32.005h128v80h-64c-1.58,0.003-3.124,0.47-4.44,1.344
		l-46.928,31.288l10.568-21.056c1.975-3.952,0.372-8.757-3.58-10.732c-1.124-0.562-2.364-0.851-3.62-0.844h-16L176.009,32.005z"/>
	
		<linearGradient id="SVGID_10_" gradientUnits="userSpaceOnUse" x1="-59.3677" y1="569.63" x2="5.2343" y2="569.63" gradientTransform="matrix(8 0 0 -8 454.935 4941.042)">
		<stop  offset="0" style="stop-color:#00A2CC"/>
		<stop  offset="1" style="stop-color:#2B32B2"/>
	</linearGradient>
	<path style="fill:url(#SVGID_10_);" d="M168.009,464.005h144c4.418,0,8-3.582,8-8v-88c0-8.837-7.163-16-16-16h-3.056l18.256-36.424
		c1.978-3.951,0.379-8.757-3.572-10.735c-2.572-1.288-5.637-1.096-8.028,0.503l-70,46.656h-69.6c-4.418,0-8,3.582-8,8v96
		C160.009,460.423,163.591,464.005,168.009,464.005z M176.009,368.005h64c1.58-0.003,3.124-0.47,4.44-1.344l46.928-31.288
		l-10.568,21.056c-1.975,3.952-0.372,8.757,3.58,10.732c1.124,0.562,2.364,0.851,3.62,0.844h16v80h-128L176.009,368.005z"/>
	
		<linearGradient id="SVGID_11_" gradientUnits="userSpaceOnUse" x1="-59.3677" y1="585.6367" x2="5.2343" y2="585.6367" gradientTransform="matrix(8 0 0 -8 454.935 4941.042)">
		<stop  offset="0" style="stop-color:#00A2CC"/>
		<stop  offset="1" style="stop-color:#2B32B2"/>
	</linearGradient>
	<path style="fill:url(#SVGID_11_);" d="M8.009,392.005h128c4.418,0,8-3.582,8-8v-80c-0.029-22.216-13.177-42.318-33.52-51.248
		c33.609-21.252,43.627-65.726,22.375-99.335s-65.726-43.627-99.335-22.375s-43.627,65.726-22.375,99.335
		c5.707,9.025,13.35,16.668,22.375,22.375c-20.343,8.93-33.491,29.032-33.52,51.248v80C0.009,388.423,3.591,392.005,8.009,392.005z
		 M16.009,192.005c0-30.928,25.072-56,56-56s56,25.072,56,56s-25.072,56-56,56C41.096,247.969,16.045,222.918,16.009,192.005z
		 M79.385,318.509l-7.376,11.096l-7.376-11.072l7.376-29.544L79.385,318.509z M16.009,304.005c0.026-22.08,17.92-39.974,40-40h5.752
		l-13.512,54.056c-0.553,2.193-0.152,4.519,1.104,6.4l16,24c2.451,3.676,7.418,4.669,11.094,2.218
		c0.878-0.586,1.632-1.339,2.218-2.218l16-24c1.256-1.881,1.657-4.207,1.104-6.4l-13.512-54.056h5.752
		c22.08,0.026,39.974,17.92,40,40v72h-112L16.009,304.005z"/>
</g>
<g>
	
		<linearGradient id="SVGID_12_" gradientUnits="userSpaceOnUse" x1="-59.3677" y1="595.6297" x2="5.2343" y2="595.6297" gradientTransform="matrix(8 0 0 -8 454.935 4941.042)">
		<stop  offset="0" style="stop-color:#00A2CC"/>
		<stop  offset="1" style="stop-color:#2B32B2"/>
	</linearGradient>
	<path style="fill:url(#SVGID_12_);" d="M376.009,168.005h16v16h-16V168.005z"/>
	
		<linearGradient id="SVGID_13_" gradientUnits="userSpaceOnUse" x1="-59.3677" y1="595.6297" x2="5.2343" y2="595.6297" gradientTransform="matrix(8 0 0 -8 454.935 4941.042)">
		<stop  offset="0" style="stop-color:#00A2CC"/>
		<stop  offset="1" style="stop-color:#2B32B2"/>
	</linearGradient>
	<path style="fill:url(#SVGID_13_);" d="M424.009,168.005h16v16h-16V168.005z"/>
</g>
<linearGradient id="SVGID_14_" gradientUnits="userSpaceOnUse" x1="-59.3677" y1="585.6361" x2="5.2343" y2="585.6361" gradientTransform="matrix(8 0 0 -8 454.935 4941.042)">
	<stop  offset="0" style="stop-color:#00A2CC"/>
	<stop  offset="1" style="stop-color:#2B32B2"/>
</linearGradient>
<path style="fill:url(#SVGID_14_);" d="M480.009,192.005c0.057-39.764-32.133-72.046-71.897-72.103
	c-39.764-0.057-72.046,32.133-72.103,71.897c-0.035,24.727,12.621,47.742,33.52,60.957c-20.343,8.93-33.491,29.032-33.52,51.248v80
	c0,4.418,3.582,8,8,8h128c4.418,0,8-3.582,8-8v-80c-0.029-22.216-13.177-42.318-33.52-51.248
	C467.333,239.586,479.982,216.661,480.009,192.005L480.009,192.005z M464.009,304.005v72h-112v-72c0.026-22.08,17.92-39.974,40-40
	h5.752l-13.512,54.056c-0.553,2.193-0.152,4.519,1.104,6.4l16,24c2.451,3.676,7.418,4.669,11.094,2.218
	c0.878-0.586,1.632-1.339,2.218-2.218l16-24c1.256-1.881,1.657-4.207,1.104-6.4l-13.512-54.056h5.752
	C446.09,264.031,463.983,281.924,464.009,304.005L464.009,304.005z M400.633,318.509l7.376-29.52l7.376,29.52l-7.376,11.096
	L400.633,318.509z M408.009,248.005c-30.928,0-56-25.072-56-56s25.072-56,56-56s56,25.072,56,56
	C463.974,222.918,438.923,247.969,408.009,248.005z"/>
<g>
</g>
<g>
</g>
<g>
</g>
<g>
</g>
<g>
</g>
<g>
</g>
<g>
</g>
<g>
</g>
<g>
</g>
<g>
</g>
<g>
</g>
<g>
</g>
<g>
</g>
<g>
</g>
<g>
</g>
</svg>
